<?xml version="1.0" encoding="utf-8"?>
<!-- Generator: Adobe Illustrator 26.3.1, SVG Export Plug-In . SVG Version: 6.00 Build 0)  -->
<svg version="1.1" id="Capa_1" xmlns="http://www.w3.org/2000/svg" xmlns:xlink="http://www.w3.org/1999/xlink" x="0px" y="0px"
	 viewBox="0 0 358.97 358.97" style="enable-background:new 0 0 358.97 358.97;" xml:space="preserve">
<style type="text/css">
	.st0{fill:#010002;}
</style>
<g>
	<g>
		<path class="st0" d="M179.48,21.56c4.58,0,8.39,3.93,8.5,8.75c0.05,2.33,0.68,4.52,1.74,6.43l29.29,90.12
			c1.87,5.77,7.25,9.67,13.31,9.67h101.61c1.26,0.37,2.59,0.57,3.95,0.57c0.27,0,0.55-0.01,0.82-0.02l0.25-0.02
			c3.33,0.09,6.02,3.01,6.02,6.58c0,2.86-1.69,4.86-3.28,5.79c-1.58,0.92-2.92,2.12-4,3.49l-80.93,58.81
			c-4.91,3.56-6.96,9.88-5.09,15.65l31.92,98.28c0.09,0.9,0.26,1.8,0.53,2.69c0.2,0.67,0.3,1.34,0.3,2.06
			c0,3.84-2.95,6.97-6.58,6.97c-1.88,0-3.25-0.83-4.08-1.52c-1.21-1.02-2.55-1.81-3.97-2.36l-82.1-59.65
			c-2.45-1.78-5.34-2.67-8.23-2.67s-5.78,0.89-8.23,2.67l-81.3,59.08c-1.17,0.52-2.28,1.22-3.3,2.08c-0.87,0.73-2.33,1.61-4.32,1.61
			c-3.86,0-7-3.31-7-7.39c0-0.86,0.15-1.73,0.45-2.56c0.56-1.57,0.82-3.19,0.81-4.78l30.7-94.51c1.87-5.77-0.18-12.09-5.09-15.65
			l-79.42-57.7c-1.07-0.78-2.24-1.4-3.48-1.84c-2.64-0.95-5.29-3.71-5.29-7.75c0-4.53,3.49-8.21,7.78-8.21
			c0.32,0,0.73,0.04,1.28,0.13c0.72,0.11,1.46,0.17,2.19,0.17h101.38c6.06,0,11.44-3.9,13.31-9.67l29.86-91.84
			c0.69-1.53,1.11-3.21,1.2-4.99C171.25,25.29,174.98,21.56,179.48,21.56 M339.09,137.06L339.09,137.06L339.09,137.06 M179.48,7.56
			c-12.03,0-21.82,9.62-22.46,21.74h-0.08l-30.31,93.24H25.25c-1.13-0.18-2.28-0.3-3.47-0.3C9.75,122.24,0,132.17,0,144.45
			c0,9.67,6.09,17.88,14.55,20.92l79.42,57.7l-31.99,98.47l0.6,0.45c-0.81,2.26-1.26,4.7-1.26,7.26c0,11.81,9.4,21.39,21,21.39
			c5.06,0,9.71-1.85,13.35-4.91l0.24,0.2l83.56-60.72l84.85,61.65l0.41-0.28c3.56,3.01,8.14,4.83,13.11,4.83
			c11.37,0,20.58-9.4,20.58-20.97c0-2.12-0.31-4.15-0.89-6.08l0.29-0.18l-32.84-101.1l83.92-60.98l-0.17-0.55
			c6.1-3.56,10.23-10.24,10.23-17.88c0-11.38-9.05-20.58-20.18-20.58c-0.3,0-0.6,0.02-0.89,0.04l-0.15-0.57H232.32L202.25,30
			l-0.27-0.02C201.69,17.58,191.74,7.56,179.48,7.56L179.48,7.56z"/>
	</g>
</g>
</svg>
